<svg width="256" height="256" viewBox="0 0 256 256" fill="none" xmlns="http://www.w3.org/2000/svg">
<rect width="256" height="256" rx="70" fill="#6441A5"/>
<path d="M160.287 190.496L146.972 172.209L152.697 170.04L161.074 182.541L161.26 182.471L159.338 167.522L164.957 165.393L173.489 177.744L173.661 177.679L171.585 162.88L177.296 160.715L179.52 183.205L173.529 185.476L165.141 173.981L164.889 174.077L166.264 188.23L160.287 190.496Z" fill="white"/>
<path d="M145.893 93.4545V114.818H84.1392V93.4545H145.893ZM98.1591 68.8864H126.599V164.489C126.599 167.115 127 169.162 127.801 170.631C128.602 172.055 129.715 173.056 131.139 173.635C132.608 174.214 134.299 174.503 136.213 174.503C137.548 174.503 138.884 174.392 140.219 174.169C141.554 173.902 142.578 173.702 143.29 173.568L147.763 194.732C146.339 195.177 144.336 195.688 141.754 196.267C139.173 196.89 136.035 197.268 132.341 197.402C125.487 197.669 119.478 196.757 114.315 194.665C109.197 192.573 105.214 189.324 102.365 184.918C99.5166 180.511 98.1146 174.948 98.1591 168.227V68.8864Z" fill="white"/>
</svg>
